<svg xmlns="http://www.w3.org/2000/svg" viewBox="0 0 24 24" id="puma"><path fill="#110638" d="M19.813 20.998c-1.644-.098-1.762-1.694-1.789-3.06-1.978-1.457-2.775-3.035-3.362-4.196-.67-1.324-.986-1.861-2.111-1.868-3.427-.017-4.691-1.256-5.614-2.161-.142-.137-.275-.268-.409-.387-.249.222-.693.566-1.59.566-.866 0-1.722-.396-2.346-.684-.112-.051-.243-.113-.359-.162-.14.446-.439.649-.896.649-.753 0-1.321-.535-1.321-1.244 0-.447.229-.877.629-1.18.261-.197.587-.336.963-.413-.428-.294-.153-.237-.634-.547-.227-.144-.605-.385-.605-.909 0-.439.303-.657.465-.773.166-.119.108-.332.222-.534.285-.504.413-.283.699-.551.083-.081.172-.25.243-.385.138-.261.279-.531.604-.578a.771.771 0 0 1 .602.263c.144-.145.333-.282.583-.282.285 0 .479.173.786.743 2.3.23 4.272 1.833 6.184 3.384 1.769 1.436 3.439 2.792 5.09 2.792 1.596 0 2.118-.988 2.903-2.735.612-1.363 1.307-2.908 2.948-3.86 1.365-.792 2.307-.154 2.307.826 0 1.19-1.067 1.678-1.926 2.07-1.243.57-1.579 1.188-2.089 2.432-.37.9-.784 1.911-1.929 2.766.396.507.89 1.5.89 3.836 0 1.098.289 1.297.594 1.509.271.188.68.471.68 1.181 0 .348.131.544.269.752.125.188.268.402.268.69 0 .19-.063.324-.104.412-.036.077-.067.144-.067.35 0 .16-.067.31-.168.536-.109.239-.074.175-.08.283a.503.503 0 0 1-.53.469zM7.636 8.999c.845.829 1.897 1.86 4.92 1.875 1.781.011 2.345 1.125 2.998 2.417.588 1.163 1.319 2.609 3.216 3.952.254.172.254.447.254.863 0 .892.088 1.523.465 1.774.027-.068.089-.186.111-.26a1.401 1.401 0 0 1 .15-.684c-.143-.08-.525-.767-.525-1.433 0-.186-.023-.203-.249-.358-.519-.359-1.024-.835-1.024-2.331 0-2.545-.61-3.168-.84-3.403-.698-.711-.013-.896.603-1.436-.485.315-1.088.505-1.867.505-2.006 0-3.81-1.465-5.72-3.016-1.867-1.515-3.797-3.081-5.895-3.182-.323-.016-.39-.223-.535-.49-.316.332-.666.314-.94.062-.428.722-.376.355-.836.738.022.24-.107.562-.481.833.377.212.743.618.743.618-.013-.024.553-.198.922-.09.388.113.953.277.953 1.044 0 .123 0 .497-.285.734-.289.238-.634.175-.941.119-.145-.027-.312-.06-.498-.06-.594 0-.918.152-1.086.279-.148.112-.233.251-.233.383 0 .144.102.231.28.242l.002-.011c.083-.597.431-.723.707-.723.271 0 .58.143 1.007.34.54.25 1.279.592 1.926.592.581 0 .789-.189.974-.356.682-.621 1.07-.178 1.724.463zM20.38 5.686c.685-.63 3.36-1.677 2.571-2.14-.647-.353-2.191 1.474-2.571 2.14z"></path></svg>